HIERARCHY
ROOT Hips
{
  OFFSET 36.6509 81.2762 6.09755
  CHANNELS 6 Xposition Yposition Zposition Zrotation Xrotation Yrotation
  JOINT spine
  {
    OFFSET 0 6.24479 0.359107
    CHANNELS 3 Zrotation Xrotation Yrotation
    JOINT spine1
    {
      OFFSET 0 9.06941 0
      CHANNELS 3 Zrotation Xrotation Yrotation
      JOINT spine2
      {
        OFFSET 0 8.69014 0
        CHANNELS 3 Zrotation Xrotation Yrotation
        JOINT Neck
        {
          OFFSET 0 22.3112 1.06372
          CHANNELS 3 Zrotation Xrotation Yrotation
          JOINT Head
          {
            OFFSET 0 6.74081 0
            CHANNELS 3 Zrotation Xrotation Yrotation
            End Site
            {
              OFFSET 0 16.3165 -5.38097
            }
          }
        }
        JOINT RightShoulder
        {
          OFFSET -3.65916 9.38468 -0.509514
          CHANNELS 3 Zrotation Xrotation Yrotation
          JOINT RightArm
          {
            OFFSET 0 12.3089 0
            CHANNELS 3 Zrotation Xrotation Yrotation
            JOINT RightArmRoll
            {
              OFFSET 0 6.21375 0
              CHANNELS 3 Zrotation Xrotation Yrotation
              JOINT RightForeArm
              {
                OFFSET 0 18.0985 0
                CHANNELS 3 Zrotation Xrotation Yrotation
                JOINT RightForeArmRoll
                {
                  OFFSET 0 6.97279 0
                  CHANNELS 3 Zrotation Xrotation Yrotation
                  JOINT RightHand
                  {
                    OFFSET 0 13.9929 0
                    CHANNELS 3 Zrotation Xrotation Yrotation
                    End Site
                    {
                      OFFSET 0 0 0
                    }
                  }
                }
              }
            }
          }
        }
        JOINT LeftShoulder
        {
          OFFSET 3.65916 9.38468 -0.509514
          CHANNELS 3 Zrotation Xrotation Yrotation
          JOINT LeftArm
          {
            OFFSET 0 12.3089 0
            CHANNELS 3 Zrotation Xrotation Yrotation
            JOINT LeftArmRoll
            {
              OFFSET 0 6.21375 0
              CHANNELS 3 Zrotation Xrotation Yrotation
              JOINT LeftForeArm
              {
                OFFSET 0 18.0985 0
                CHANNELS 3 Zrotation Xrotation Yrotation
                JOINT LeftForeArmRoll
                {
                  OFFSET 0 6.97279 0
                  CHANNELS 3 Zrotation Xrotation Yrotation
                  JOINT LeftHand
                  {
                    OFFSET 0 13.9929 0
                    CHANNELS 3 Zrotation Xrotation Yrotation
                    End Site
                    {
                      OFFSET 0 0 0
                    }
                  }
                }
              }
            }
          }
        }
      }
    }
  }
  JOINT RightUpLeg
  {
    OFFSET -5.53515 -1.015 -0.851454
    CHANNELS 3 Zrotation Xrotation Yrotation
    JOINT RightUpLegRoll
    {
      OFFSET 0 16.4075 0
      CHANNELS 3 Zrotation Xrotation Yrotation
      JOINT RightLeg
      {
        OFFSET 0 -20.3181 0
        CHANNELS 3 Zrotation Xrotation Yrotation
        JOINT RightLegRoll
        {
          OFFSET 0 20.3846 0
          CHANNELS 3 Zrotation Xrotation Yrotation
          JOINT RightFoot
          {
            OFFSET 0 16.9668 0
            CHANNELS 3 Zrotation Xrotation Yrotation
            JOINT RightToeBase
            {
              OFFSET 0 14.1834 0
              CHANNELS 3 Zrotation Xrotation Yrotation
              End Site
              {
                OFFSET 0.0060118 6.86889 -0.791746
              }
            }
          }
        }
      }
    }
  }
  JOINT LeftUpLeg
  {
    OFFSET 5.53515 -1.015 -0.851454
    CHANNELS 3 Zrotation Xrotation Yrotation
    JOINT LeftUpLegRoll
    {
      OFFSET 0 16.4076 0
      CHANNELS 3 Zrotation Xrotation Yrotation
      JOINT LeftLeg
      {
        OFFSET 0 20.3181 0
        CHANNELS 3 Zrotation Xrotation Yrotation
        JOINT LeftLegRoll
        {
          OFFSET 0 20.5731 0
          CHANNELS 3 Zrotation Xrotation Yrotation
          JOINT LeftFoot
          {
            OFFSET 0 16.7783 0
            CHANNELS 3 Zrotation Xrotation Yrotation
            JOINT LeftToeBase
            {
              OFFSET 0 14.1834 0
              CHANNELS 3 Zrotation Xrotation Yrotation
              End Site
              {
                OFFSET -0.0269423 6.8689 -0.791746
              }
            }
          }
        }
      }
    }
  }
}
MOTION
Frames: 9
Frame Time: 0.00208333
42.3832 83.3434 10.1632 -2.17892 2.04024 -7.87503 -0.0829569 -0.824217 -0.0143226 -0.166113 2.35439 -0.0330982 -0.165885 3.99946 -0.0303343 6.06093 2.86036 3.16284 -4.74521 5.29246 4.45984 64.3775 -1.90841 -1.6779 111.12 20.1725 -8.03805 5.90595e-006 -9.40892e-007 7.82513e-007 18.3939 23.9832 -4.39758 -1.00231e-006 7.6283e-006 -3 8.02907 -4.95158 0.697792 -60.8298 -9.38423 5.84866 -115.619 7.59466 7.07151 -1.25497e-007 7.24669e-008 1.81551e-009 -14.32 61.2745 10.7711 -5.35521e-006 -7.14769e-006 3.00001 -8.02942 -4.95156 -0.697724 173.381 12.8443 1.57967 180 7.01566e-015 179.007 -179.245 16.3622 178.897 -1.24761e-006 -4.95997e-006 0.12176 -17.7385 68.4081 19.8545 8.13174 25.2369 -3.47382 -168.011 5.72462 -7.17068 4.54188e-006 -4.6773e-006 -0.452953 -1.70933 -17.6687 0.982868 -1.11265e-006 3.62394e-006 -0.0600932 21.4653 75.5651 -27.6488 -8.13482 25.2417 3.47943 
42.3767 83.3126 10.1224 -2.15043 2.04735 -7.82833 -0.0855025 -0.827101 -0.0147567 -0.171208 2.34862 -0.0326664 -0.17099 3.99369 -0.0298169 5.99654 2.8624 3.19454 -4.74719 5.27746 4.47556 64.361 -1.89796 -1.67047 111.117 20.0959 -7.79859 5.90595e-006 -9.40892e-007 7.82513e-007 18.2643 23.7816 -4.33857 -1.00231e-006 7.6283e-006 -3 8.02907 -4.95158 0.697792 -60.8375 -9.37992 5.84616 -115.576 7.59131 7.05612 -1.25497e-007 7.24669e-008 1.81551e-009 -14.3366 61.2179 10.7698 -5.35521e-006 -7.14769e-006 3.00001 -8.02942 -4.95156 -0.697724 173.428 12.9013 1.5453 180 7.01567e-015 179.015 -179.236 16.4946 178.883 -1.24761e-006 -4.95997e-006 0.119579 -17.7082 68.5009 19.9269 8.13174 25.2369 -3.47382 -168.014 5.77226 -7.14966 4.54188e-006 -4.6773e-006 -0.449911 -1.68585 -17.6893 0.993261 -1.11265e-006 3.62394e-006 -0.0570723 21.3996 75.5552 -27.6206 -8.13482 25.2417 3.47944 
42.3191 83.3041 10.105 -2.12133 2.05478 -7.7812 -0.0881652 -0.830096 -0.0151592 -0.176537 2.34263 -0.0321213 -0.176331 3.9877 -0.0291822 5.93369 2.86421 3.22397 -4.7492 5.2614 4.48931 64.3452 -1.8873 -1.66299 111.113 20.0175 -7.55847 5.90595e-006 -9.40892e-007 7.82513e-007 18.1359 23.5801 -4.27969 -1.00231e-006 7.6283e-006 -3 8.02907 -4.95158 0.697792 -60.8439 -9.37425 5.84282 -115.535 7.58688 7.04042 -1.25497e-007 7.24669e-008 1.81551e-009 -14.3528 61.1612 10.7684 -5.35521e-006 -7.14769e-006 3.00001 -8.02942 -4.95156 -0.697724 173.473 12.9587 1.513 180 7.01569e-015 179.022 -179.228 16.6285 178.869 -1.24761e-006 -4.95997e-006 0.117476 -17.6794 68.5948 20.0012 8.13174 25.2369 -3.47382 -168.019 5.82042 -7.12799 4.54188e-006 -4.6773e-006 -0.446923 -1.66246 -17.7101 1.00359 -1.11265e-006 3.62394e-006 -0.0540818 21.3347 75.5455 -27.5928 -8.13482 25.2417 3.47946 
42.2348 83.3133 10.1198 -2.0918 2.06244 -7.73376 -0.0909097 -0.833169 -0.0155395 -0.182029 2.33648 -0.031497 -0.181837 3.98156 -0.0284655 5.87191 2.86587 3.2518 -4.75123 5.24459 4.50168 64.3299 -1.87648 -1.65548 111.109 19.9377 -7.31796 5.90595e-006 -9.40892e-007 7.82513e-007 18.0084 23.3788 -4.22095 -1.00231e-006 7.6283e-006 -3 8.02907 -4.95158 0.697792 -60.8496 -9.36761 5.83891 -115.495 7.58169 7.02452 -1.25497e-007 7.24669e-008 1.81551e-009 -14.3688 61.1045 10.7668 -5.35521e-006 -7.14769e-006 3.00001 -8.02942 -4.95156 -0.697724 173.516 13.0164 1.48214 180 7.0157e-015 179.029 -179.22 16.7633 178.856 -1.24761e-006 -4.95997e-006 0.115428 -17.6519 68.6896 20.0769 8.13174 25.2369 -3.47382 -168.024 5.86896 -7.10587 4.54188e-006 -4.6773e-006 -0.443973 -1.63912 -17.7309 1.01388 -1.11265e-006 3.62394e-006 -0.0511127 21.2702 75.5359 -27.5653 -8.13482 25.2417 3.47949 
42.2024 83.2908 10.0915 -2.06203 2.07022 -7.68615 -0.093701 -0.836286 -0.015907 -0.187615 2.33025 -0.0308274 -0.187436 3.97532 -0.0277019 5.81074 2.86744 3.27873 -4.75326 5.22736 4.51326 64.3149 -1.86559 -1.64796 111.105 19.8571 -7.07735 5.90595e-006 -9.40892e-007 7.82513e-007 17.8817 23.1776 -4.1624 -1.00231e-006 7.6283e-006 -3 8.02907 -4.95158 0.697792 -60.8547 -9.36043 5.83466 -115.456 7.57607 7.00849 -1.25497e-007 7.24669e-008 1.81551e-009 -14.3848 61.0478 10.7652 -5.35521e-006 -7.14769e-006 3.00001 -8.02942 -4.95156 -0.697724 173.559 13.0742 1.45211 180 7.01572e-015 179.036 -179.213 16.8988 178.842 -1.24761e-006 -4.95997e-006 0.113412 -17.6255 68.7848 20.1539 8.13174 25.2369 -3.47382 -168.03 5.91771 -7.08348 4.54188e-006 -4.6773e-006 -0.441045 -1.61581 -17.7518 1.02415 -1.11265e-006 3.62394e-006 -0.0481557 21.206 75.5264 -27.538 -8.13482 25.2417 3.47952 
42.1787 83.2882 10.0543 -2.03222 2.07803 -7.6385 -0.0965041 -0.839414 -0.0162715 -0.193224 2.32399 -0.0301465 -0.193059 3.96906 -0.0269266 5.74972 2.86898 3.30542 -4.75529 5.21002 4.52464 64.2999 -1.85467 -1.64043 111.102 19.7758 -6.83692 5.90595e-006 -9.40892e-007 7.82513e-007 17.7555 22.9764 -4.10407 -1.00231e-006 7.6283e-006 -3 8.02907 -4.95158 0.697792 -60.8597 -9.35311 5.83033 -115.417 7.57034 6.99243 -1.25497e-007 7.24669e-008 1.81551e-009 -14.4007 60.991 10.7635 -5.35521e-006 -7.14769e-006 3.00001 -8.02942 -4.95156 -0.697724 173.602 13.1321 1.42226 180 7.01573e-015 179.044 -179.206 17.0344 178.829 -1.24761e-006 -4.95997e-006 0.111403 -17.5999 68.8801 20.2317 8.13174 25.2369 -3.47382 -168.036 5.96651 -7.06103 4.54188e-006 -4.6773e-006 -0.438123 -1.5925 -17.7727 1.03441 -1.11265e-006 3.62394e-006 -0.0452018 21.1419 75.5169 -27.5108 -8.13482 25.2417 3.47956 
42.1232 83.2765 10.039 -2.00254 2.08577 -7.59094 -0.0992838 -0.842521 -0.0166422 -0.198787 2.31778 -0.0294882 -0.198635 3.96285 -0.0261747 5.68839 2.87056 3.33258 -4.75731 5.1929 4.53641 64.2848 -1.84379 -1.63291 111.1 19.6945 -6.59692 5.90595e-006 -9.40892e-007 7.82513e-007 17.6297 22.7751 -4.04598 -1.00231e-006 7.6283e-006 -3 8.02907 -4.95158 0.697792 -60.8649 -9.34607 5.82616 -115.378 7.56483 6.97643 -1.25497e-007 7.24669e-008 1.81551e-009 -14.4166 60.9342 10.7619 -5.35521e-006 -7.14769e-006 3.00001 -8.02942 -4.95156 -0.697724 173.645 13.1899 1.39199 180 7.01575e-015 179.051 -179.198 17.1697 178.816 -1.24761e-006 -4.95997e-006 0.109379 -17.5748 68.9751 20.3099 8.13174 25.2369 -3.47382 -168.042 6.01522 -7.03871 4.54188e-006 -4.6773e-006 -0.435189 -1.56916 -17.7935 1.04469 -1.11265e-006 3.62394e-006 -0.0422418 21.0777 75.5073 -27.4835 -8.13482 25.2417 3.47959 
42.0453 83.2666 10.0438 -1.97318 2.09336 -7.54359 -0.102005 -0.845571 -0.0170288 -0.204232 2.31168 -0.0288865 -0.204093 3.95675 -0.0254815 5.6263 2.87226 3.36086 -4.7593 5.1763 4.54917 64.2693 -1.83302 -1.62542 111.099 19.6134 -6.35762 5.90595e-006 -9.40892e-007 7.82513e-007 17.5038 22.5735 -3.98817 -1.00231e-006 7.6283e-006 -3 8.02907 -4.95158 0.697792 -60.8708 -9.33971 5.82241 -115.338 7.55985 6.96058 -1.25497e-007 7.24669e-008 1.81551e-009 -14.4328 60.8775 10.7605 -5.35521e-006 -7.14769e-006 3.00001 -8.02942 -4.95156 -0.697724 173.689 13.2475 1.36066 180 7.01576e-015 179.058 -179.19 17.3042 178.802 -1.24761e-006 -4.95997e-006 0.107315 -17.55 69.0695 20.3883 8.13174 25.2369 -3.47382 -168.047 6.06366 -7.01672 4.54188e-006 -4.6773e-006 -0.432229 -1.54577 -17.8143 1.05501 -1.11265e-006 3.62394e-006 -0.0392666 21.0132 75.4977 -27.456 -8.13482 25.2417 3.47961 
42.0063 83.2584 10.0189 -1.94434 2.1007 -7.49659 -0.104633 -0.848533 -0.0174408 -0.20949 2.30575 -0.0283755 -0.209362 3.95083 -0.0248821 5.56297 2.87414 3.39097 -4.76125 5.16056 4.56351 64.2533 -1.82242 -1.61795 111.1 19.533 -6.1193 5.90595e-006 -9.40892e-007 7.82513e-007 17.3779 22.3718 -3.93067 -1.00231e-006 7.6283e-006 -3 8.02907 -4.95158 0.697792 -60.8776 -9.33444 5.81933 -115.296 7.55574 6.94498 -1.25497e-007 7.24669e-008 1.81551e-009 -14.4491 60.8209 10.7592 -5.35521e-006 -7.14769e-006 3.00001 -8.02942 -4.95156 -0.697724 173.734 13.3048 1.32766 180 7.01578e-015 179.065 -179.181 17.4376 178.788 -1.24761e-006 -4.95997e-006 0.105189 -17.5251 69.1629 20.4664 8.13174 25.2369 -3.47382 -168.051 6.11169 -6.99525 4.54188e-006 -4.6773e-006 -0.429224 -1.5223 -17.835 1.06537 -1.11265e-006 3.62394e-006 -0.036267 20.9482 75.4879 -27.4284 -8.13482 25.2417 3.47963 
